<svg xmlns="http://www.w3.org/2000/svg" class="none">

    <symbol id="lightning" viewBox="0 0 32 32">
        <path
            d="M26.9,15.7C26.8,15.3,26.4,15,26,15h-6l3.9-11.7c0.1-0.4,0-0.9-0.4-1.1c-0.4-0.3-0.8-0.2-1.2,0l-17,13  c-0.3,0.3-0.5,0.7-0.3,1.1C5.2,16.7,5.6,17,6,17h6L8.1,28.7c-0.1,0.4,0,0.9,0.4,1.1C8.6,29.9,8.8,30,9,30c0.2,0,0.4-0.1,0.6-0.2  l17-13C26.9,16.5,27.1,16.1,26.9,15.7z" />
    </symbol>

    <symbol id="plus" viewBox="0 0 48 48">
        <path d="M38 26h-12v12h-4v-12h-12v-4h12v-12h4v12h12v4z"/>
        <path d="M0 0h48v48h-48z" fill="none"/>
    </symbol>

    <symbol id="check" viewBox="0 0 48 48">
        <path d="M0 0h48v48h-48z" fill="none"/>
        <path d="M18 32.34l-8.34-8.34-2.83 2.83 11.17 11.17 24-24-2.83-2.83z"/>
    </symbol>

    <symbol id="cross" viewBox="0 0 48 48">
        <path d="M38 12.83l-2.83-2.83-11.17 11.17-11.17-11.17-2.83 2.83 11.17 11.17-11.17 11.17 2.83 2.83 11.17-11.17 11.17 11.17 2.83-2.83-11.17-11.17z"/>
        <path d="M0 0h48v48h-48z" fill="none"/>
    </symbol>

    <symbol id="circle-arrow" viewBox="0 0 48 48">
        <path d="M35.3 12.7c-2.89-2.9-6.88-4.7-11.3-4.7-8.84 0-15.98 7.16-15.98 16s7.14 16 15.98 16c7.45 0 13.69-5.1 15.46-12h-4.16c-1.65 4.66-6.07 8-11.3 8-6.63 0-12-5.37-12-12s5.37-12 12-12c3.31 0 6.28 1.38 8.45 3.55l-6.45 6.45h14v-14l-4.7 4.7z"/>
        <path d="M0 0h48v48h-48z" fill="none"/>
    </symbol>

    <symbol id="calendar" viewBox="0 0 32 32">
        <path d="M29.334 3H25V1a1 1 0 1 0-2 0v2h-6V1a1 1 0 1 0-2 0v2H9V1a1 1 0 1 0-2 0v2H2.667A2.666 2.666 0 0 0 0 5.666v23.667A2.667 2.667 0 0 0 2.667 32h26.667A2.666 2.666 0 0 0 32 29.333V5.666A2.665 2.665 0 0 0 29.334 3zM30 29.333a.667.667 0 0 1-.666.667H2.667A.667.667 0 0 1 2 29.333V5.666C2 5.299 2.299 5 2.667 5H7v2a1 1 0 1 0 2 0V5h6v2a1 1 0 1 0 2 0V5h6v2a1 1 0 1 0 2 0V5h4.334c.367 0 .666.299.666.666v23.667z"></path>
        <path d="M7 12h4v3H7zM7 17h4v3H7zM7 22h4v3H7zM14 22h4v3h-4zM14 17h4v3h-4zM14 12h4v3h-4zM21 22h4v3h-4zM21 17h4v3h-4zM21 12h4v3h-4z"></path>
    </symbol>
</svg>